<?xml version="1.0" encoding="UTF-8"?>
<svg width="549px" height="97px" viewBox="0 0 549 97" version="1.1" xmlns="http://www.w3.org/2000/svg" xmlns:xlink="http://www.w3.org/1999/xlink">
    <!-- Generator: Sketch 50.1 (55044) - http://www.bohemiancoding.com/sketch -->
    <title>Slice</title>
    <desc>Created with Sketch.</desc>
    <defs></defs>
    <g id="Page-1" stroke="none" stroke-width="1" fill="none" fill-rule="evenodd">
        <g id="Group-2" fill="#b2ff33" fill-rule="nonzero">
            <g id="shure_branding_darker">
                <path d="M272.59,0.894 L265.448,58.867 L254.526,58.867 L261.667,0.894 L220.077,0.894 L215.456,40.803 C215.036,46.264 213.776,56.347 215.876,63.068 C220.918,78.612 233.521,84.073 233.521,84.073 L235.201,84.913 C240.662,87.854 246.964,88.694 252.425,88.694 L256.206,88.694 C266.708,88.694 275.11,86.594 281.832,82.813 L282.252,82.813 C284.353,81.552 297.376,74.831 304.937,59.287 C307.878,53.406 308.298,52.146 309.559,42.903 L314.6,1.314" id="Fill-1"></path>
                <polyline id="Fill-2" points="145.3 84.913 145.3 84.913 149.081 55.506 161.684 55.506 161.684 55.086 157.903 84.913 198.652 84.913 209.155 0.894 168.405 0.894 164.624 29.88 152.021 29.88 155.382 0.894 114.633 0.894 104.55 84.913 145.3 84.913"></polyline>
                <!-- <path d="M539.773,4.254 L539.773,7.195 L541.033,7.195 C542.713,7.195 543.133,6.775 543.133,5.935 C543.133,4.674 542.293,4.254 541.033,4.254 L539.773,4.254 M545.234,5.935 C545.234,7.195 544.394,8.035 543.133,8.455 L545.234,12.656 L543.554,12.656 L541.873,8.875 L540.193,8.875 L540.193,12.656 L538.512,12.656 L538.512,3.414 L541.873,3.414 C543.974,3.414 545.234,4.254 545.234,5.935 M546.074,2.994 C544.814,1.734 543.133,0.894 541.033,0.894 C539.353,0.894 537.672,1.734 536.412,2.994 C535.151,4.254 534.311,5.935 534.311,8.035 C534.311,9.716 535.151,11.396 536.412,12.656 C537.672,13.917 539.353,14.757 541.033,14.757 C542.713,14.757 544.394,13.917 546.074,12.656 C547.334,11.396 548.175,9.716 548.175,8.035 C548.175,5.935 547.334,4.254 546.074,2.994 M546.914,2.574 C548.175,3.834 549.015,5.935 549.015,8.035 C549.015,10.136 548.175,12.236 546.914,13.496 C545.234,15.177 543.554,16.017 541.453,16.017 C539.353,16.017 537.252,15.177 535.992,13.496 C534.311,11.816 533.471,10.136 533.471,8.035 C533.471,5.935 534.311,3.834 535.992,2.574 C537.252,1.314 539.353,0.474 541.453,0.474 C543.554,0.053 545.654,0.894 546.914,2.574" id="Fill-3"></path> -->
                <path d="M516.247,62.648 L467.096,62.648 L468.776,51.305 L517.928,51.305 L520.448,29.88 L471.717,29.88 L472.977,19.798 L521.708,19.798 L524.229,0.474 L433.908,0.474 L425.506,63.488 L394.839,47.945 C394.839,47.945 403.241,45.424 407.862,42.063 C412.903,38.702 414.583,35.342 415.844,33.661 C417.524,30.721 419.624,27.36 419.624,21.058 C420.044,14.337 416.264,9.716 414.583,7.615 C412.903,5.515 408.282,0.474 400.3,0.894 L325.942,0.894 L323.422,19.798 L382.236,19.798 L380.975,29.88 L322.582,29.88 L315.86,84.913 L351.568,84.913 L354.929,57.187 L421.725,97.516 L423.405,84.913 L513.727,84.913 L516.247,62.648" id="Fill-4"></path>
                <path d="M32.293,0.894 C26.832,0.894 22.211,2.994 18.01,5.935 C5.827,15.597 2.886,36.602 20.53,45.424 C23.051,46.684 61.7,62.228 61.7,62.228 L3.727,62.228 L0.786,84.913 L71.783,84.913 C82.705,84.913 89.847,80.712 95.308,73.571 C96.989,71.05 98.249,68.529 99.089,66.009 C101.61,58.027 101.189,49.205 95.728,44.584 C94.468,43.744 93.628,42.903 92.367,42.063 C91.527,41.643 90.267,40.803 89.427,40.383 C80.184,36.182 40.695,19.378 40.695,19.378 L101.61,19.378 L104.13,0.473 L32.293,0.894" id="Fill-5"></path>
            </g>
        </g>
    </g>
</svg>
